<mxfile host="Electron" agent="Mozilla/5.0 (Windows NT 10.0; Win64; x64) AppleWebKit/537.36 (KHTML, like Gecko) draw.io/27.0.5 Chrome/134.0.6998.205 Electron/35.3.0 Safari/537.36" version="27.0.5">
  <diagram id="C5RBs43oDa-KdzZeNtuy" name="Page-1">
    <mxGraphModel dx="872" dy="563" grid="1" gridSize="10" guides="1" tooltips="1" connect="1" arrows="1" fold="1" page="1" pageScale="1" pageWidth="827" pageHeight="1169" math="0" shadow="0">
      <root>
        <mxCell id="WIyWlLk6GJQsqaUBKTNV-0" />
        <mxCell id="WIyWlLk6GJQsqaUBKTNV-1" parent="WIyWlLk6GJQsqaUBKTNV-0" />
        <mxCell id="zkfFHV4jXpPFQw0GAbJ--0" value="Propietarios" style="swimlane;fontStyle=2;align=center;verticalAlign=top;childLayout=stackLayout;horizontal=1;startSize=26;horizontalStack=0;resizeParent=1;resizeLast=0;collapsible=1;marginBottom=0;rounded=0;shadow=0;strokeWidth=1;" parent="WIyWlLk6GJQsqaUBKTNV-1" vertex="1">
          <mxGeometry x="850" y="580" width="160" height="322" as="geometry">
            <mxRectangle x="230" y="140" width="160" height="26" as="alternateBounds" />
          </mxGeometry>
        </mxCell>
        <mxCell id="zkfFHV4jXpPFQw0GAbJ--1" value="IdPropietario                   PK" style="text;align=left;verticalAlign=top;spacingLeft=4;spacingRight=4;overflow=hidden;rotatable=0;points=[[0,0.5],[1,0.5]];portConstraint=eastwest;" parent="zkfFHV4jXpPFQw0GAbJ--0" vertex="1">
          <mxGeometry y="26" width="160" height="26" as="geometry" />
        </mxCell>
        <mxCell id="zkfFHV4jXpPFQw0GAbJ--2" value="Nombre" style="text;align=left;verticalAlign=top;spacingLeft=4;spacingRight=4;overflow=hidden;rotatable=0;points=[[0,0.5],[1,0.5]];portConstraint=eastwest;rounded=0;shadow=0;html=0;" parent="zkfFHV4jXpPFQw0GAbJ--0" vertex="1">
          <mxGeometry y="52" width="160" height="26" as="geometry" />
        </mxCell>
        <mxCell id="34BWVJ8qGwGpE30HVIjN-3" value="Clave" style="text;html=1;align=left;verticalAlign=middle;whiteSpace=wrap;rounded=0;" vertex="1" parent="zkfFHV4jXpPFQw0GAbJ--0">
          <mxGeometry y="78" width="160" height="30" as="geometry" />
        </mxCell>
        <mxCell id="zkfFHV4jXpPFQw0GAbJ--3" value="Apellido" style="text;align=left;verticalAlign=top;spacingLeft=4;spacingRight=4;overflow=hidden;rotatable=0;points=[[0,0.5],[1,0.5]];portConstraint=eastwest;rounded=0;shadow=0;html=0;" parent="zkfFHV4jXpPFQw0GAbJ--0" vertex="1">
          <mxGeometry y="108" width="160" height="26" as="geometry" />
        </mxCell>
        <mxCell id="0Q1v4AROY5il0tV_-qrh-0" value="&amp;nbsp;DNI" style="text;html=1;align=left;verticalAlign=middle;whiteSpace=wrap;rounded=0;" parent="zkfFHV4jXpPFQw0GAbJ--0" vertex="1">
          <mxGeometry y="134" width="160" height="30" as="geometry" />
        </mxCell>
        <mxCell id="0Q1v4AROY5il0tV_-qrh-1" value="&amp;nbsp;Telefono" style="text;html=1;align=left;verticalAlign=middle;whiteSpace=wrap;rounded=0;" parent="zkfFHV4jXpPFQw0GAbJ--0" vertex="1">
          <mxGeometry y="164" width="160" height="30" as="geometry" />
        </mxCell>
        <mxCell id="0Q1v4AROY5il0tV_-qrh-2" value="&amp;nbsp;Email" style="text;html=1;align=left;verticalAlign=middle;whiteSpace=wrap;rounded=0;" parent="zkfFHV4jXpPFQw0GAbJ--0" vertex="1">
          <mxGeometry y="194" width="160" height="30" as="geometry" />
        </mxCell>
        <mxCell id="zkfFHV4jXpPFQw0GAbJ--4" value="" style="line;html=1;strokeWidth=1;align=left;verticalAlign=middle;spacingTop=-1;spacingLeft=3;spacingRight=3;rotatable=0;labelPosition=right;points=[];portConstraint=eastwest;" parent="zkfFHV4jXpPFQw0GAbJ--0" vertex="1">
          <mxGeometry y="224" width="160" height="8" as="geometry" />
        </mxCell>
        <mxCell id="zkfFHV4jXpPFQw0GAbJ--5" value="+Agregar()" style="text;align=left;verticalAlign=top;spacingLeft=4;spacingRight=4;overflow=hidden;rotatable=0;points=[[0,0.5],[1,0.5]];portConstraint=eastwest;" parent="zkfFHV4jXpPFQw0GAbJ--0" vertex="1">
          <mxGeometry y="232" width="160" height="30" as="geometry" />
        </mxCell>
        <mxCell id="0Q1v4AROY5il0tV_-qrh-3" value="&amp;nbsp;+Modificar()&lt;span style=&quot;white-space: pre;&quot;&gt;&#x9;&lt;/span&gt;" style="text;html=1;align=left;verticalAlign=middle;whiteSpace=wrap;rounded=0;" parent="zkfFHV4jXpPFQw0GAbJ--0" vertex="1">
          <mxGeometry y="262" width="160" height="30" as="geometry" />
        </mxCell>
        <mxCell id="0Q1v4AROY5il0tV_-qrh-4" value="&amp;nbsp;+Eliminar()" style="text;html=1;align=left;verticalAlign=middle;whiteSpace=wrap;rounded=0;" parent="zkfFHV4jXpPFQw0GAbJ--0" vertex="1">
          <mxGeometry y="292" width="160" height="30" as="geometry" />
        </mxCell>
        <mxCell id="0Q1v4AROY5il0tV_-qrh-5" value="Inquilino" style="swimlane;fontStyle=2;align=center;verticalAlign=top;childLayout=stackLayout;horizontal=1;startSize=26;horizontalStack=0;resizeParent=1;resizeLast=0;collapsible=1;marginBottom=0;rounded=0;shadow=0;strokeWidth=1;" parent="WIyWlLk6GJQsqaUBKTNV-1" vertex="1">
          <mxGeometry x="60" y="520" width="160" height="292" as="geometry">
            <mxRectangle x="230" y="140" width="160" height="26" as="alternateBounds" />
          </mxGeometry>
        </mxCell>
        <mxCell id="0Q1v4AROY5il0tV_-qrh-6" value="IdInquilino                   PK" style="text;align=left;verticalAlign=top;spacingLeft=4;spacingRight=4;overflow=hidden;rotatable=0;points=[[0,0.5],[1,0.5]];portConstraint=eastwest;" parent="0Q1v4AROY5il0tV_-qrh-5" vertex="1">
          <mxGeometry y="26" width="160" height="26" as="geometry" />
        </mxCell>
        <mxCell id="0Q1v4AROY5il0tV_-qrh-7" value="Nombre" style="text;align=left;verticalAlign=top;spacingLeft=4;spacingRight=4;overflow=hidden;rotatable=0;points=[[0,0.5],[1,0.5]];portConstraint=eastwest;rounded=0;shadow=0;html=0;" parent="0Q1v4AROY5il0tV_-qrh-5" vertex="1">
          <mxGeometry y="52" width="160" height="26" as="geometry" />
        </mxCell>
        <mxCell id="0Q1v4AROY5il0tV_-qrh-8" value="Apellido" style="text;align=left;verticalAlign=top;spacingLeft=4;spacingRight=4;overflow=hidden;rotatable=0;points=[[0,0.5],[1,0.5]];portConstraint=eastwest;rounded=0;shadow=0;html=0;" parent="0Q1v4AROY5il0tV_-qrh-5" vertex="1">
          <mxGeometry y="78" width="160" height="26" as="geometry" />
        </mxCell>
        <mxCell id="0Q1v4AROY5il0tV_-qrh-9" value="&amp;nbsp;DNI" style="text;html=1;align=left;verticalAlign=middle;whiteSpace=wrap;rounded=0;" parent="0Q1v4AROY5il0tV_-qrh-5" vertex="1">
          <mxGeometry y="104" width="160" height="30" as="geometry" />
        </mxCell>
        <mxCell id="0Q1v4AROY5il0tV_-qrh-10" value="&amp;nbsp;Telefono" style="text;html=1;align=left;verticalAlign=middle;whiteSpace=wrap;rounded=0;" parent="0Q1v4AROY5il0tV_-qrh-5" vertex="1">
          <mxGeometry y="134" width="160" height="30" as="geometry" />
        </mxCell>
        <mxCell id="0Q1v4AROY5il0tV_-qrh-11" value="&amp;nbsp;Email" style="text;html=1;align=left;verticalAlign=middle;whiteSpace=wrap;rounded=0;" parent="0Q1v4AROY5il0tV_-qrh-5" vertex="1">
          <mxGeometry y="164" width="160" height="30" as="geometry" />
        </mxCell>
        <mxCell id="0Q1v4AROY5il0tV_-qrh-12" value="" style="line;html=1;strokeWidth=1;align=left;verticalAlign=middle;spacingTop=-1;spacingLeft=3;spacingRight=3;rotatable=0;labelPosition=right;points=[];portConstraint=eastwest;" parent="0Q1v4AROY5il0tV_-qrh-5" vertex="1">
          <mxGeometry y="194" width="160" height="8" as="geometry" />
        </mxCell>
        <mxCell id="0Q1v4AROY5il0tV_-qrh-13" value="+Agregar()" style="text;align=left;verticalAlign=top;spacingLeft=4;spacingRight=4;overflow=hidden;rotatable=0;points=[[0,0.5],[1,0.5]];portConstraint=eastwest;" parent="0Q1v4AROY5il0tV_-qrh-5" vertex="1">
          <mxGeometry y="202" width="160" height="30" as="geometry" />
        </mxCell>
        <mxCell id="0Q1v4AROY5il0tV_-qrh-14" value="&amp;nbsp;+Modificar()&lt;span style=&quot;white-space: pre;&quot;&gt;&#x9;&lt;/span&gt;" style="text;html=1;align=left;verticalAlign=middle;whiteSpace=wrap;rounded=0;" parent="0Q1v4AROY5il0tV_-qrh-5" vertex="1">
          <mxGeometry y="232" width="160" height="30" as="geometry" />
        </mxCell>
        <mxCell id="0Q1v4AROY5il0tV_-qrh-15" value="&amp;nbsp;+Eliminar()" style="text;html=1;align=left;verticalAlign=middle;whiteSpace=wrap;rounded=0;" parent="0Q1v4AROY5il0tV_-qrh-5" vertex="1">
          <mxGeometry y="262" width="160" height="30" as="geometry" />
        </mxCell>
        <mxCell id="nGsrVBBHqPoAqwaeTL_7-0" value="Inmueble" style="swimlane;fontStyle=2;align=center;verticalAlign=top;childLayout=stackLayout;horizontal=1;startSize=26;horizontalStack=0;resizeParent=1;resizeLast=0;collapsible=1;marginBottom=0;rounded=0;shadow=0;strokeWidth=1;" parent="WIyWlLk6GJQsqaUBKTNV-1" vertex="1">
          <mxGeometry x="850" y="130" width="160" height="414" as="geometry">
            <mxRectangle x="230" y="140" width="160" height="26" as="alternateBounds" />
          </mxGeometry>
        </mxCell>
        <mxCell id="nGsrVBBHqPoAqwaeTL_7-1" value="IdInmueble                    PK" style="text;align=left;verticalAlign=top;spacingLeft=4;spacingRight=4;overflow=hidden;rotatable=0;points=[[0,0.5],[1,0.5]];portConstraint=eastwest;" parent="nGsrVBBHqPoAqwaeTL_7-0" vertex="1">
          <mxGeometry y="26" width="160" height="26" as="geometry" />
        </mxCell>
        <mxCell id="nGsrVBBHqPoAqwaeTL_7-2" value="IdPropietario                  FK" style="text;align=left;verticalAlign=top;spacingLeft=4;spacingRight=4;overflow=hidden;rotatable=0;points=[[0,0.5],[1,0.5]];portConstraint=eastwest;rounded=0;shadow=0;html=0;" parent="nGsrVBBHqPoAqwaeTL_7-0" vertex="1">
          <mxGeometry y="52" width="160" height="26" as="geometry" />
        </mxCell>
        <mxCell id="nGsrVBBHqPoAqwaeTL_7-3" value="Direccion" style="text;align=left;verticalAlign=top;spacingLeft=4;spacingRight=4;overflow=hidden;rotatable=0;points=[[0,0.5],[1,0.5]];portConstraint=eastwest;rounded=0;shadow=0;html=0;" parent="nGsrVBBHqPoAqwaeTL_7-0" vertex="1">
          <mxGeometry y="78" width="160" height="26" as="geometry" />
        </mxCell>
        <mxCell id="nGsrVBBHqPoAqwaeTL_7-4" value="Tipo" style="text;html=1;align=left;verticalAlign=middle;whiteSpace=wrap;rounded=0;" parent="nGsrVBBHqPoAqwaeTL_7-0" vertex="1">
          <mxGeometry y="104" width="160" height="30" as="geometry" />
        </mxCell>
        <mxCell id="nGsrVBBHqPoAqwaeTL_7-5" value="Ambiente" style="text;html=1;align=left;verticalAlign=middle;whiteSpace=wrap;rounded=0;" parent="nGsrVBBHqPoAqwaeTL_7-0" vertex="1">
          <mxGeometry y="134" width="160" height="30" as="geometry" />
        </mxCell>
        <mxCell id="nGsrVBBHqPoAqwaeTL_7-6" value="Superficie" style="text;html=1;align=left;verticalAlign=middle;whiteSpace=wrap;rounded=0;" parent="nGsrVBBHqPoAqwaeTL_7-0" vertex="1">
          <mxGeometry y="164" width="160" height="30" as="geometry" />
        </mxCell>
        <mxCell id="nGsrVBBHqPoAqwaeTL_7-13" value="PrecioAlquiler" style="text;html=1;align=left;verticalAlign=middle;whiteSpace=wrap;rounded=0;" parent="nGsrVBBHqPoAqwaeTL_7-0" vertex="1">
          <mxGeometry y="194" width="160" height="30" as="geometry" />
        </mxCell>
        <mxCell id="34BWVJ8qGwGpE30HVIjN-0" value="FechaCreacion" style="text;html=1;align=left;verticalAlign=middle;whiteSpace=wrap;rounded=0;" vertex="1" parent="nGsrVBBHqPoAqwaeTL_7-0">
          <mxGeometry y="224" width="160" height="30" as="geometry" />
        </mxCell>
        <mxCell id="34BWVJ8qGwGpE30HVIjN-1" value="Precio" style="text;html=1;align=left;verticalAlign=middle;whiteSpace=wrap;rounded=0;" vertex="1" parent="nGsrVBBHqPoAqwaeTL_7-0">
          <mxGeometry y="254" width="160" height="30" as="geometry" />
        </mxCell>
        <mxCell id="34BWVJ8qGwGpE30HVIjN-2" value="Uso" style="text;html=1;align=left;verticalAlign=middle;whiteSpace=wrap;rounded=0;" vertex="1" parent="nGsrVBBHqPoAqwaeTL_7-0">
          <mxGeometry y="284" width="160" height="30" as="geometry" />
        </mxCell>
        <mxCell id="nGsrVBBHqPoAqwaeTL_7-7" value="" style="line;html=1;strokeWidth=1;align=left;verticalAlign=middle;spacingTop=-1;spacingLeft=3;spacingRight=3;rotatable=0;labelPosition=right;points=[];portConstraint=eastwest;" parent="nGsrVBBHqPoAqwaeTL_7-0" vertex="1">
          <mxGeometry y="314" width="160" height="8" as="geometry" />
        </mxCell>
        <mxCell id="nGsrVBBHqPoAqwaeTL_7-8" value="+Agregar()" style="text;align=left;verticalAlign=top;spacingLeft=4;spacingRight=4;overflow=hidden;rotatable=0;points=[[0,0.5],[1,0.5]];portConstraint=eastwest;" parent="nGsrVBBHqPoAqwaeTL_7-0" vertex="1">
          <mxGeometry y="322" width="160" height="32" as="geometry" />
        </mxCell>
        <mxCell id="nGsrVBBHqPoAqwaeTL_7-9" value="&amp;nbsp;+Modificar()&lt;span style=&quot;white-space: pre;&quot;&gt;&#x9;&lt;/span&gt;" style="text;html=1;align=left;verticalAlign=middle;whiteSpace=wrap;rounded=0;" parent="nGsrVBBHqPoAqwaeTL_7-0" vertex="1">
          <mxGeometry y="354" width="160" height="30" as="geometry" />
        </mxCell>
        <mxCell id="nGsrVBBHqPoAqwaeTL_7-10" value="&amp;nbsp;+Eliminar()" style="text;html=1;align=left;verticalAlign=middle;whiteSpace=wrap;rounded=0;" parent="nGsrVBBHqPoAqwaeTL_7-0" vertex="1">
          <mxGeometry y="384" width="160" height="30" as="geometry" />
        </mxCell>
        <mxCell id="nGsrVBBHqPoAqwaeTL_7-15" value="Contratos" style="swimlane;fontStyle=2;align=center;verticalAlign=top;childLayout=stackLayout;horizontal=1;startSize=26;horizontalStack=0;resizeParent=1;resizeLast=0;collapsible=1;marginBottom=0;rounded=0;shadow=0;strokeWidth=1;" parent="WIyWlLk6GJQsqaUBKTNV-1" vertex="1">
          <mxGeometry x="490" y="190" width="160" height="324" as="geometry">
            <mxRectangle x="230" y="140" width="160" height="26" as="alternateBounds" />
          </mxGeometry>
        </mxCell>
        <mxCell id="nGsrVBBHqPoAqwaeTL_7-16" value="IdIContrato                    PK" style="text;align=left;verticalAlign=top;spacingLeft=4;spacingRight=4;overflow=hidden;rotatable=0;points=[[0,0.5],[1,0.5]];portConstraint=eastwest;" parent="nGsrVBBHqPoAqwaeTL_7-15" vertex="1">
          <mxGeometry y="26" width="160" height="26" as="geometry" />
        </mxCell>
        <mxCell id="nGsrVBBHqPoAqwaeTL_7-17" value="IdInmueble                    FK" style="text;align=left;verticalAlign=top;spacingLeft=4;spacingRight=4;overflow=hidden;rotatable=0;points=[[0,0.5],[1,0.5]];portConstraint=eastwest;rounded=0;shadow=0;html=0;" parent="nGsrVBBHqPoAqwaeTL_7-15" vertex="1">
          <mxGeometry y="52" width="160" height="26" as="geometry" />
        </mxCell>
        <mxCell id="nGsrVBBHqPoAqwaeTL_7-18" value="IdInquilino                     FK" style="text;align=left;verticalAlign=top;spacingLeft=4;spacingRight=4;overflow=hidden;rotatable=0;points=[[0,0.5],[1,0.5]];portConstraint=eastwest;rounded=0;shadow=0;html=0;" parent="nGsrVBBHqPoAqwaeTL_7-15" vertex="1">
          <mxGeometry y="78" width="160" height="26" as="geometry" />
        </mxCell>
        <mxCell id="nGsrVBBHqPoAqwaeTL_7-19" value="FechaInicio" style="text;html=1;align=left;verticalAlign=middle;whiteSpace=wrap;rounded=0;" parent="nGsrVBBHqPoAqwaeTL_7-15" vertex="1">
          <mxGeometry y="104" width="160" height="30" as="geometry" />
        </mxCell>
        <mxCell id="nGsrVBBHqPoAqwaeTL_7-20" value="FechaFin" style="text;html=1;align=left;verticalAlign=middle;whiteSpace=wrap;rounded=0;" parent="nGsrVBBHqPoAqwaeTL_7-15" vertex="1">
          <mxGeometry y="134" width="160" height="30" as="geometry" />
        </mxCell>
        <mxCell id="nGsrVBBHqPoAqwaeTL_7-21" value="PrecioMensual" style="text;html=1;align=left;verticalAlign=middle;whiteSpace=wrap;rounded=0;" parent="nGsrVBBHqPoAqwaeTL_7-15" vertex="1">
          <mxGeometry y="164" width="160" height="30" as="geometry" />
        </mxCell>
        <mxCell id="nGsrVBBHqPoAqwaeTL_7-22" value="Estado" style="text;html=1;align=left;verticalAlign=middle;whiteSpace=wrap;rounded=0;" parent="nGsrVBBHqPoAqwaeTL_7-15" vertex="1">
          <mxGeometry y="194" width="160" height="30" as="geometry" />
        </mxCell>
        <mxCell id="nGsrVBBHqPoAqwaeTL_7-23" value="" style="line;html=1;strokeWidth=1;align=left;verticalAlign=middle;spacingTop=-1;spacingLeft=3;spacingRight=3;rotatable=0;labelPosition=right;points=[];portConstraint=eastwest;" parent="nGsrVBBHqPoAqwaeTL_7-15" vertex="1">
          <mxGeometry y="224" width="160" height="8" as="geometry" />
        </mxCell>
        <mxCell id="nGsrVBBHqPoAqwaeTL_7-24" value="+Agregar()" style="text;align=left;verticalAlign=top;spacingLeft=4;spacingRight=4;overflow=hidden;rotatable=0;points=[[0,0.5],[1,0.5]];portConstraint=eastwest;" parent="nGsrVBBHqPoAqwaeTL_7-15" vertex="1">
          <mxGeometry y="232" width="160" height="32" as="geometry" />
        </mxCell>
        <mxCell id="nGsrVBBHqPoAqwaeTL_7-25" value="&amp;nbsp;+Modificar()&lt;span style=&quot;white-space: pre;&quot;&gt;&#x9;&lt;/span&gt;" style="text;html=1;align=left;verticalAlign=middle;whiteSpace=wrap;rounded=0;" parent="nGsrVBBHqPoAqwaeTL_7-15" vertex="1">
          <mxGeometry y="264" width="160" height="30" as="geometry" />
        </mxCell>
        <mxCell id="nGsrVBBHqPoAqwaeTL_7-26" value="&amp;nbsp;+Eliminar()" style="text;html=1;align=left;verticalAlign=middle;whiteSpace=wrap;rounded=0;" parent="nGsrVBBHqPoAqwaeTL_7-15" vertex="1">
          <mxGeometry y="294" width="160" height="30" as="geometry" />
        </mxCell>
        <mxCell id="nGsrVBBHqPoAqwaeTL_7-27" value="Pagos" style="swimlane;fontStyle=2;align=center;verticalAlign=top;childLayout=stackLayout;horizontal=1;startSize=26;horizontalStack=0;resizeParent=1;resizeLast=0;collapsible=1;marginBottom=0;rounded=0;shadow=0;strokeWidth=1;" parent="WIyWlLk6GJQsqaUBKTNV-1" vertex="1">
          <mxGeometry x="60" y="190" width="160" height="292" as="geometry">
            <mxRectangle x="230" y="140" width="160" height="26" as="alternateBounds" />
          </mxGeometry>
        </mxCell>
        <mxCell id="nGsrVBBHqPoAqwaeTL_7-28" value="IdPago                   PK" style="text;align=left;verticalAlign=top;spacingLeft=4;spacingRight=4;overflow=hidden;rotatable=0;points=[[0,0.5],[1,0.5]];portConstraint=eastwest;" parent="nGsrVBBHqPoAqwaeTL_7-27" vertex="1">
          <mxGeometry y="26" width="160" height="26" as="geometry" />
        </mxCell>
        <mxCell id="nGsrVBBHqPoAqwaeTL_7-29" value="IdContrato" style="text;align=left;verticalAlign=top;spacingLeft=4;spacingRight=4;overflow=hidden;rotatable=0;points=[[0,0.5],[1,0.5]];portConstraint=eastwest;rounded=0;shadow=0;html=0;" parent="nGsrVBBHqPoAqwaeTL_7-27" vertex="1">
          <mxGeometry y="52" width="160" height="26" as="geometry" />
        </mxCell>
        <mxCell id="nGsrVBBHqPoAqwaeTL_7-30" value="FechaPago" style="text;align=left;verticalAlign=top;spacingLeft=4;spacingRight=4;overflow=hidden;rotatable=0;points=[[0,0.5],[1,0.5]];portConstraint=eastwest;rounded=0;shadow=0;html=0;" parent="nGsrVBBHqPoAqwaeTL_7-27" vertex="1">
          <mxGeometry y="78" width="160" height="26" as="geometry" />
        </mxCell>
        <mxCell id="nGsrVBBHqPoAqwaeTL_7-31" value="Monto" style="text;html=1;align=left;verticalAlign=middle;whiteSpace=wrap;rounded=0;" parent="nGsrVBBHqPoAqwaeTL_7-27" vertex="1">
          <mxGeometry y="104" width="160" height="30" as="geometry" />
        </mxCell>
        <mxCell id="nGsrVBBHqPoAqwaeTL_7-32" value="Observaciones" style="text;html=1;align=left;verticalAlign=middle;whiteSpace=wrap;rounded=0;" parent="nGsrVBBHqPoAqwaeTL_7-27" vertex="1">
          <mxGeometry y="134" width="160" height="30" as="geometry" />
        </mxCell>
        <mxCell id="nGsrVBBHqPoAqwaeTL_7-34" value="" style="line;html=1;strokeWidth=1;align=left;verticalAlign=middle;spacingTop=-1;spacingLeft=3;spacingRight=3;rotatable=0;labelPosition=right;points=[];portConstraint=eastwest;" parent="nGsrVBBHqPoAqwaeTL_7-27" vertex="1">
          <mxGeometry y="164" width="160" height="8" as="geometry" />
        </mxCell>
        <mxCell id="nGsrVBBHqPoAqwaeTL_7-35" value="+Agregar()" style="text;align=left;verticalAlign=top;spacingLeft=4;spacingRight=4;overflow=hidden;rotatable=0;points=[[0,0.5],[1,0.5]];portConstraint=eastwest;" parent="nGsrVBBHqPoAqwaeTL_7-27" vertex="1">
          <mxGeometry y="172" width="160" height="30" as="geometry" />
        </mxCell>
        <mxCell id="nGsrVBBHqPoAqwaeTL_7-36" value="&amp;nbsp;+Modificar()&lt;span style=&quot;white-space: pre;&quot;&gt;&#x9;&lt;/span&gt;" style="text;html=1;align=left;verticalAlign=middle;whiteSpace=wrap;rounded=0;" parent="nGsrVBBHqPoAqwaeTL_7-27" vertex="1">
          <mxGeometry y="202" width="160" height="30" as="geometry" />
        </mxCell>
        <mxCell id="nGsrVBBHqPoAqwaeTL_7-37" value="&amp;nbsp;+Eliminar()" style="text;html=1;align=left;verticalAlign=middle;whiteSpace=wrap;rounded=0;" parent="nGsrVBBHqPoAqwaeTL_7-27" vertex="1">
          <mxGeometry y="232" width="160" height="30" as="geometry" />
        </mxCell>
        <mxCell id="nGsrVBBHqPoAqwaeTL_7-38" value="" style="endArrow=none;html=1;rounded=0;exitX=1;exitY=0.5;exitDx=0;exitDy=0;entryX=0;entryY=0.5;entryDx=0;entryDy=0;" parent="WIyWlLk6GJQsqaUBKTNV-1" source="nGsrVBBHqPoAqwaeTL_7-29" target="nGsrVBBHqPoAqwaeTL_7-16" edge="1">
          <mxGeometry width="50" height="50" relative="1" as="geometry">
            <mxPoint x="440" y="640" as="sourcePoint" />
            <mxPoint x="500" y="599" as="targetPoint" />
          </mxGeometry>
        </mxCell>
        <mxCell id="nGsrVBBHqPoAqwaeTL_7-39" value="" style="endArrow=none;html=1;rounded=0;exitX=1;exitY=0.5;exitDx=0;exitDy=0;entryX=0;entryY=0.5;entryDx=0;entryDy=0;" parent="WIyWlLk6GJQsqaUBKTNV-1" source="0Q1v4AROY5il0tV_-qrh-6" target="nGsrVBBHqPoAqwaeTL_7-18" edge="1">
          <mxGeometry width="50" height="50" relative="1" as="geometry">
            <mxPoint x="320" y="490" as="sourcePoint" />
            <mxPoint x="370" y="440" as="targetPoint" />
          </mxGeometry>
        </mxCell>
        <mxCell id="nGsrVBBHqPoAqwaeTL_7-40" value="" style="endArrow=none;html=1;rounded=0;entryX=0;entryY=0.5;entryDx=0;entryDy=0;exitX=1;exitY=0.5;exitDx=0;exitDy=0;" parent="WIyWlLk6GJQsqaUBKTNV-1" source="nGsrVBBHqPoAqwaeTL_7-17" target="nGsrVBBHqPoAqwaeTL_7-1" edge="1">
          <mxGeometry width="50" height="50" relative="1" as="geometry">
            <mxPoint x="710" y="570" as="sourcePoint" />
            <mxPoint x="760" y="520" as="targetPoint" />
          </mxGeometry>
        </mxCell>
        <mxCell id="a3yVWRczBz_yXqK0OVtU-1" style="edgeStyle=orthogonalEdgeStyle;rounded=0;orthogonalLoop=1;jettySize=auto;html=1;exitX=0.5;exitY=1;exitDx=0;exitDy=0;entryX=0.5;entryY=0;entryDx=0;entryDy=0;" parent="WIyWlLk6GJQsqaUBKTNV-1" source="nGsrVBBHqPoAqwaeTL_7-10" target="zkfFHV4jXpPFQw0GAbJ--0" edge="1">
          <mxGeometry relative="1" as="geometry" />
        </mxCell>
      </root>
    </mxGraphModel>
  </diagram>
</mxfile>
